<?xml version="1.0" standalone="no"?>
<!DOCTYPE svg PUBLIC "-//W3C//DTD SVG 20010904//EN" "http://www.w3.org/TR/2001/REC-SVG-20010904/DTD/svg10.dtd">
<svg version="1.0" xmlns="http://www.w3.org/2000/svg" width="512.000000pt" height="512.000000pt"
  viewBox="0 0 512.000000 512.000000" preserveAspectRatio="xMidYMid meet">

  <g transform="translate(0.000000,512.000000) scale(0.100000,-0.100000)" fill="#000000" stroke="none">
    <path d="M4460 5109 c-14 -5 -167 -152 -341 -326 l-317 -316 -28 20 c-63 45
-200 106 -292 130 -81 22 -120 26 -237 27 -163 0 -266 -21 -401 -84 -133 -61
-198 -113 -418 -329 -228 -225 -253 -259 -241 -334 6 -40 54 -89 838 -874 785
-784 834 -832 874 -838 74 -12 109 13 329 236 217 221 273 291 334 422 63 134
84 236 84 402 -1 196 -38 333 -134 491 l-41 68 320 320 c274 276 320 326 326
358 15 79 9 87 -259 357 -138 139 -265 259 -283 267 -37 16 -77 17 -113 3z
m53 -841 l-248 -248 -122 122 -123 123 247 247 248 248 122 -122 123 -123
-247 -247z m-1093 56 c30 -9 91 -34 135 -57 72 -37 105 -66 338 -297 143 -140
281 -283 308 -316 164 -205 193 -470 77 -704 -37 -76 -58 -102 -199 -245
l-158 -160 -688 688 -688 688 160 158 c145 143 169 162 245 199 47 22 117 48
155 56 85 19 235 14 315 -10z" />
    <path d="M1693 4781 c-71 -33 -83 -65 -83 -211 0 -140 11 -172 72 -211 41 -25
122 -22 160 7 54 40 63 68 63 206 0 112 -2 130 -21 154 -51 69 -119 88 -191
55z" />
    <path d="M772 4400 c-66 -41 -90 -124 -56 -196 26 -54 166 -182 208 -190 56
-10 103 3 141 41 38 38 51 85 41 141 -8 42 -136 182 -190 208 -46 22 -104 20
-144 -4z" />
    <path d="M389 3487 c-44 -29 -74 -100 -65 -151 10 -51 59 -103 109 -117 23 -6
86 -9 142 -7 116 4 156 21 186 80 36 70 15 152 -50 195 -31 21 -46 23 -161 23
-116 0 -130 -2 -161 -23z" />
    <path d="M1860 3351 c-108 -35 -142 -60 -347 -264 l-202 -200 -26 21 c-40 32
-96 37 -147 14 -54 -24 -434 -407 -497 -501 -62 -91 -117 -214 -143 -317 -29
-115 -31 -332 -5 -438 24 -95 68 -202 117 -282 l41 -68 -320 -320 c-281 -282
-320 -326 -327 -359 -14 -79 -2 -95 273 -369 219 -218 264 -257 295 -263 81
-15 82 -14 425 327 l321 321 29 -20 c62 -45 202 -106 290 -129 276 -70 549
-22 788 139 90 61 473 442 497 494 22 50 17 102 -14 146 l-20 29 200 201 c137
139 207 218 225 252 73 145 76 293 11 432 -31 65 -121 164 -181 200 -143 83
-343 84 -483 1 -19 -12 -126 -112 -238 -222 l-202 -201 -122 123 -123 122 201
202 c110 112 210 219 222 238 81 137 83 334 4 470 -37 64 -117 146 -177 180
-104 59 -255 77 -365 41z m207 -297 c69 -34 105 -113 88 -201 -6 -32 -36 -67
-198 -231 l-191 -192 -123 122 -123 123 167 168 c93 93 188 182 212 198 52 34
113 38 168 13z m-177 -1169 l685 -686 -160 -158 c-145 -143 -168 -162 -245
-199 -111 -53 -226 -77 -335 -68 -102 7 -169 27 -270 79 -72 37 -105 66 -338
297 -290 285 -341 345 -392 452 -67 140 -82 315 -39 458 36 124 80 186 243
353 85 86 157 157 160 157 3 0 314 -308 691 -685z m1087 259 c78 -38 117 -148
78 -225 -19 -37 -362 -389 -380 -389 -6 0 -63 53 -128 118 l-117 117 183 182
c100 100 196 189 212 197 39 21 108 20 152 0z m-2124 -1536 l-248 -248 -122
122 -123 123 247 247 248 248 122 -122 123 -123 -247 -247z" />
    <path d="M4449 1900 c-126 -38 -149 -202 -37 -270 28 -17 51 -20 158 -20 149
0 179 12 211 86 37 83 -6 180 -89 204 -43 11 -205 12 -243 0z" />
    <path d="M4092 1093 c-60 -29 -91 -96 -78 -168 8 -43 136 -183 190 -209 131
-62 262 69 200 199 -19 41 -152 171 -188 185 -39 14 -86 12 -124 -7z" />
    <path d="M3289 759 c-58 -34 -73 -69 -77 -184 -5 -124 7 -174 52 -213 47 -41
102 -49 160 -23 74 32 86 62 86 211 0 107 -3 130 -20 158 -42 69 -130 92 -201
51z" />
  </g>
</svg>